<svg width="125" height="125" viewBox="0 0 125 125" fill="none" xmlns="http://www.w3.org/2000/svg">
<g id="Stockholm-icons / Communication / Chat-error">
<path id="Combined Shape" fill-rule="evenodd" clip-rule="evenodd" d="M13.4165 15.625C11.7596 15.625 10.4165 16.9681 10.4165 18.625V61.7971C15.8585 58.9205 22.0619 57.2917 28.6457 57.2917C49.3442 57.2917 66.2827 73.3905 67.6227 93.75H93.8796L113.006 112.876C113.636 113.506 114.713 113.06 114.713 112.169V78.125L114.583 78.176V18.625C114.583 16.9681 113.24 15.625 111.583 15.625H13.4165ZM27.0415 36.4583C26.4892 36.4583 26.0415 36.906 26.0415 37.4583V45.875C26.0415 46.4273 26.4892 46.875 27.0415 46.875H82.3332C82.8855 46.875 83.3332 46.4273 83.3332 45.875V37.4583C83.3332 36.906 82.8855 36.4583 82.3332 36.4583H27.0415Z" fill="#FFA4A4"/>
<path id="Combined Shape_2" opacity="0.3" fill-rule="evenodd" clip-rule="evenodd" d="M27.0415 72.9167C26.4892 72.9167 26.0415 73.3644 26.0415 73.9167V92.75C26.0415 93.3023 26.4892 93.75 27.0415 93.75H35.4582C36.0105 93.75 36.4582 93.3023 36.4582 92.75V73.9167C36.4582 73.3644 36.0105 72.9167 35.4582 72.9167H27.0415ZM36.4582 104.167C36.4582 107.043 34.1263 109.375 31.2498 109.375C28.3734 109.375 26.0415 107.043 26.0415 104.167C26.0415 101.29 28.3734 98.9583 31.2498 98.9583C34.1263 98.9583 36.4582 101.29 36.4582 104.167Z" fill="#FFA4A4"/>
</g>
</svg>
