<svg width="116" height="116" viewBox="0 0 116 116" fill="none" xmlns="http://www.w3.org/2000/svg">
<g id="Stockholm-icons / Communication / Shield-user">
<path id="Path 50" opacity="0.3" fill-rule="evenodd" clip-rule="evenodd" d="M19.3334 19.3333L57.6315 12.1524C57.8751 12.1068 58.125 12.1068 58.3686 12.1524L96.6667 19.3333V80.9033C96.6667 84.696 94.7129 88.2211 91.4967 90.2312L58.53 110.835C58.2058 111.038 57.7943 111.038 57.47 110.835L24.5034 90.2312C21.2872 88.2211 19.3334 84.696 19.3334 80.9033L19.3334 19.3333Z" fill="#63E8C0"/>
<path id="Mask" opacity="0.3" fill-rule="evenodd" clip-rule="evenodd" d="M58 53.1667C52.6613 53.1667 48.3334 48.8388 48.3334 43.5C48.3334 38.1612 52.6613 33.8333 58 33.8333C63.3388 33.8333 67.6667 38.1612 67.6667 43.5C67.6667 48.8388 63.3388 53.1667 58 53.1667Z" fill="#63E8C0"/>
<path id="Mask Copy" opacity="0.3" fill-rule="evenodd" clip-rule="evenodd" d="M33.8351 79.7476C34.8759 65.3301 45.2774 58 57.9553 58C70.8116 58 81.3743 64.9274 82.1611 79.75C82.1924 80.3405 82.1611 82.1667 80.144 82.1667C70.1938 82.1667 55.4081 82.1667 35.7869 82.1667C35.1134 82.1667 33.7784 80.5329 33.8351 79.7476Z" fill="#63E8C0"/>
</g>
</svg>
