<svg width="237" height="53" viewBox="0 0 237 53" fill="none" xmlns="http://www.w3.org/2000/svg">
<path d="M15.5665 52.1722C13.8775 53.44 11.3982 53.2453 9.7774 51.63C9.30223 51.1564 8.95047 50.6096 8.72136 50.0297C7.19673 50.513 5.41517 50.1161 4.15424 48.8594C2.89331 47.6025 2.49523 45.8268 2.97993 44.3071C2.39833 44.0789 1.84975 43.7284 1.37461 43.2548C-0.246184 41.6392 -0.441538 39.1681 0.8304 37.4847C0.765801 37.4274 20.2606 32.8059 20.2606 32.8059C20.2606 32.8059 15.6237 52.2366 15.5665 52.1722Z" fill="#FF85CE"/>
<path d="M32.9142 20.194C32.9142 20.194 37.551 0.763225 37.6085 0.827715C39.2975 -0.44004 41.7767 -0.245328 43.3974 1.37013C43.8725 1.84372 44.2244 2.39049 44.4534 2.97017C45.9781 2.48707 47.7597 2.88384 49.0205 4.14062C50.2815 5.3974 50.6795 7.1731 50.1949 8.69272C50.7764 8.92108 51.325 9.27168 51.8002 9.74528C53.4211 11.3608 53.6164 13.8319 52.3445 15.5154C52.4091 15.5724 32.9142 20.194 32.9142 20.194Z" fill="#FF85CE"/>
<path d="M32.9142 20.1941L49.0208 4.14053C50.2815 5.39731 50.6798 7.17304 50.1949 8.69263C50.7767 8.92098 51.3253 9.27161 51.8004 9.74519C53.4211 11.3606 53.6164 13.8318 52.3445 15.5152C52.4091 15.5724 32.9142 20.1941 32.9142 20.1941Z" fill="#FB36AC"/>
<path d="M20.2606 32.8059C20.2606 32.8059 15.6237 52.2366 15.5665 52.1722C13.8775 53.4399 11.3982 53.2453 9.77741 51.6297C9.30226 51.1561 8.95048 50.6093 8.72137 50.0297C7.19676 50.5127 5.41518 50.116 4.15424 48.8591L20.2606 32.8059Z" fill="#FB36AC"/>
<path d="M40.1036 33.005L33.1139 39.972C32.8223 40.2623 32.5207 40.537 32.21 40.7923C30.4569 42.2498 26.5875 40.6271 26.5875 40.6271C26.5875 40.6271 22.7209 43.951 20.965 43.5885C18.5026 43.0813 16.157 41.8751 14.2462 39.972L13.0711 38.8008C7.86215 33.6074 7.86215 25.1884 13.0711 19.995L20.0609 13.0282C20.3525 12.7376 20.6543 12.4631 20.9649 12.2076C22.5967 10.8505 26.8812 13.6905 26.8812 13.6905C26.8812 13.6905 30.3071 9.01837 32.21 9.41151C34.6723 9.91874 37.018 11.125 38.9289 13.0282L40.1039 14.1993C45.3127 19.3925 45.3127 27.8116 40.1036 33.005Z" fill="#FF60BF"/>
<path d="M40.1035 33.005L33.1139 39.972C32.8223 40.2623 32.5204 40.537 32.2099 40.7923C30.4569 42.2498 26.5874 40.6271 26.5874 40.6271C26.5874 40.6271 22.7209 43.951 20.9649 43.5885C18.5026 43.0813 16.157 41.8751 14.2461 39.972L13.6586 39.3864L39.5163 13.6138L40.1038 14.1994C45.3127 19.3925 45.3127 27.8116 40.1035 33.005Z" fill="#FB36AC"/>
<path d="M32.2097 9.41144C28.3344 8.61136 24.1705 9.54248 20.9649 12.2076V43.5885C24.8403 44.3886 29.0043 43.4574 32.2097 40.7923V9.41144Z" fill="#CD71FF"/>
<path d="M32.2097 40.7923C29.0043 43.4574 24.8403 44.3883 20.9649 43.5885V32.1037L32.2097 20.896V40.7923Z" fill="#B833FF"/>
<path d="M29.3534 25.6699L25.0293 24.4368C24.529 24.2964 24.1805 23.8397 24.1805 23.3327C24.1805 22.6965 24.709 22.1815 25.3618 22.1815H28.0161C28.5045 22.1815 28.9849 22.3257 29.3854 22.591C29.6299 22.7512 29.9581 22.7121 30.1662 22.513L31.5596 21.1863C31.8438 20.9172 31.8035 20.4683 31.4875 20.2304C30.5064 19.4812 29.2814 19.0639 28.0241 19.0598V17.1868C28.0241 16.8435 27.7358 16.5625 27.3835 16.5625H26.1023C25.75 16.5625 25.4617 16.8435 25.4617 17.1868V19.0598H25.3618C22.8113 19.0598 20.7614 21.1944 20.9977 23.7267C21.1659 25.5257 22.5752 26.9888 24.3528 27.4961L28.4565 28.6667C28.9572 28.8112 29.3054 29.264 29.3054 29.7709C29.3054 30.4069 28.7768 30.9221 28.1243 30.9221H25.4697C24.9813 30.9221 24.5008 30.7779 24.1005 30.5126C23.8564 30.3525 23.5281 30.3915 23.3199 30.5904L21.9266 31.9171C21.6422 32.1864 21.6822 32.6352 21.9986 32.8731C22.9794 33.6222 24.2046 34.0397 25.4617 34.0437V35.9166C25.4617 36.26 25.75 36.5409 26.1023 36.5409H27.3835C27.7358 36.5409 28.0241 36.26 28.0241 35.9166V34.036C29.8897 34.0006 31.6396 32.9198 32.2563 31.1993C33.1168 28.7955 31.6717 26.3292 29.3534 25.6699Z" fill="white"/>
<path d="M63.3797 37.2408C66.7698 37.2408 69.7101 35.4824 71.1976 32.793L66.666 30.2071C66.1125 31.4139 64.8326 32.1379 63.3105 32.1379C61.062 32.1379 59.4016 30.5175 59.4016 28.1384C59.4016 25.7594 61.062 24.1389 63.3105 24.1389C64.8326 24.1389 66.0779 24.863 66.666 26.0697L71.1976 23.4494C69.7101 20.7945 66.7352 19.0361 63.3797 19.0361C58.1217 19.0361 54.2128 23.0011 54.2128 28.1384C54.2128 33.2757 58.1217 37.2408 63.3797 37.2408ZM85.5051 19.5188V21.1393C84.3635 19.8291 82.6685 19.0361 80.3508 19.0361C75.8192 19.0361 72.0832 23.0011 72.0832 28.1384C72.0832 33.2757 75.8192 37.2408 80.3508 37.2408C82.6685 37.2408 84.3635 36.4478 85.5051 35.1376V36.7581H90.6939V19.5188H85.5051ZM81.3886 32.3448C79.0017 32.3448 77.2721 30.7243 77.2721 28.1384C77.2721 25.5526 79.0017 23.9321 81.3886 23.9321C83.7754 23.9321 85.5051 25.5526 85.5051 28.1384C85.5051 30.7243 83.7754 32.3448 81.3886 32.3448ZM104.636 19.0361C102.353 19.0361 100.623 19.8636 99.6893 21.1393V19.5188H94.5005V36.7581H99.6893V27.3454C99.6893 24.8975 101.004 23.7941 102.906 23.7941C104.567 23.7941 105.916 24.794 105.916 26.9317V36.7581H111.105V26.1732C111.105 21.5186 108.13 19.0361 104.636 19.0361ZM127.225 12.6231V21.1393C126.084 19.8291 124.388 19.0361 122.071 19.0361C117.539 19.0361 113.803 23.0011 113.803 28.1384C113.803 33.2757 117.539 37.2408 122.071 37.2408C124.388 37.2408 126.084 36.4478 127.225 35.1376V36.7581H132.414V12.6231H127.225ZM123.109 32.3448C120.722 32.3448 118.992 30.7243 118.992 28.1384C118.992 25.5526 120.722 23.9321 123.109 23.9321C125.495 23.9321 127.225 25.5526 127.225 28.1384C127.225 30.7243 125.495 32.3448 123.109 32.3448ZM147.117 19.5188L143.866 30.0692L140.026 19.5188H134.318L141.202 35.9651C140.441 38.0682 139.299 38.8268 136.878 38.8268V43.6538C141.721 43.8951 144.8 41.723 146.737 36.2409L152.652 19.5188H147.117ZM158.429 24.5527C158.429 23.9321 158.983 23.5873 159.882 23.5873C161.023 23.5873 161.715 24.2079 162.2 25.1043L166.627 22.7253C165.175 20.2773 162.684 19.0361 159.882 19.0361C156.284 19.0361 153.102 20.9324 153.102 24.6906C153.102 30.6554 161.612 29.6555 161.612 31.5518C161.612 32.2414 160.989 32.6206 159.744 32.6206C158.221 32.6206 157.253 31.8966 156.803 30.5864L152.306 33.1378C153.655 35.9306 156.284 37.2408 159.744 37.2408C163.479 37.2408 166.939 35.5513 166.939 31.5863C166.939 25.2078 158.429 26.5179 158.429 24.5527ZM179.158 24.4837V19.5188H175.595V14.6918L170.406 16.2434V19.5188H167.639V24.4837H170.406V30.5864C170.406 35.4134 172.378 37.4476 179.158 36.7581V32.069C176.875 32.2069 175.595 32.069 175.595 30.5864V24.4837H179.158ZM190.06 37.2408C195.145 37.2408 199.227 33.2757 199.227 28.1384C199.227 23.0011 195.145 19.0361 190.06 19.0361C184.975 19.0361 180.893 23.0011 180.893 28.1384C180.893 33.2757 184.975 37.2408 190.06 37.2408ZM190.06 32.2069C187.812 32.2069 186.082 30.5864 186.082 28.1384C186.082 25.6905 187.812 24.07 190.06 24.07C192.309 24.07 194.038 25.6905 194.038 28.1384C194.038 30.5864 192.309 32.2069 190.06 32.2069ZM210.464 37.2408C213.854 37.2408 216.795 35.4824 218.282 32.793L213.751 30.2071C213.197 31.4139 211.917 32.1379 210.395 32.1379C208.147 32.1379 206.486 30.5175 206.486 28.1384C206.486 25.7594 208.147 24.1389 210.395 24.1389C211.917 24.1389 213.163 24.863 213.751 26.0697L218.282 23.4494C216.795 20.7945 213.82 19.0361 210.464 19.0361C205.206 19.0361 201.297 23.0011 201.297 28.1384C201.297 33.2757 205.206 37.2408 210.464 37.2408ZM236.975 36.7581L230.506 28.1384L236.802 19.5188H230.748L225.559 27.0696V12.6231H220.371V36.7581H225.559V29.1383L231.094 36.7581H236.975Z" fill="#3D356C"/>
</svg>
