<svg width="125" height="125" viewBox="0 0 125 125" fill="none" xmlns="http://www.w3.org/2000/svg">
<g id="Stockholm-icons / Communication / Sending mail">
<path id="Combined Shape" opacity="0.3" fill-rule="evenodd" clip-rule="evenodd" d="M11.9167 31.25C11.0882 31.25 10.4167 31.9216 10.4167 32.75V40.1667C10.4167 40.9951 11.0882 41.6667 11.9167 41.6667H29.75C30.5784 41.6667 31.25 40.9951 31.25 40.1667V32.75C31.25 31.9216 30.5784 31.25 29.75 31.25H11.9167ZM0 58.7917C0 57.9632 0.671573 57.2917 1.5 57.2917H29.75C30.5784 57.2917 31.25 57.9632 31.25 58.7917V66.2083C31.25 67.0368 30.5784 67.7083 29.75 67.7083H1.5C0.671572 67.7083 0 67.0368 0 66.2083V58.7917ZM15.625 84.8333C15.625 84.0049 16.2966 83.3333 17.125 83.3333H29.75C30.5784 83.3333 31.25 84.0049 31.25 84.8333V92.25C31.25 93.0784 30.5784 93.75 29.75 93.75H17.125C16.2966 93.75 15.625 93.0784 15.625 92.25V84.8333Z" fill="#CACFFF"/>
<path id="Combined Shape_2" fill-rule="evenodd" clip-rule="evenodd" d="M43.6667 31.25C42.5622 31.25 41.6667 32.1454 41.6667 33.25V91.75C41.6667 92.8546 42.5622 93.75 43.6668 93.75H123C124.105 93.75 125 92.8546 125 91.75V33.25C125 32.1454 124.105 31.25 123 31.25H43.6667ZM114.196 43.3107C113.35 41.7911 111.389 41.2226 109.817 42.0408L83.3334 55.826L56.8494 42.0408C55.2774 41.2226 53.3169 41.7911 52.4704 43.3107C51.624 44.8302 52.2121 46.7254 53.7841 47.5436L81.8008 62.1265C82.7576 62.6245 83.9092 62.6245 84.866 62.1265L112.883 47.5436C114.455 46.7254 115.043 44.8302 114.196 43.3107Z" fill="#CACFFF"/>
</g>
</svg>
