<svg width="116" height="116" viewBox="0 0 116 116" fill="none" xmlns="http://www.w3.org/2000/svg">
<g id="Stockholm-icons / Communication / Readed-mail">
<path id="check" opacity="0.3" d="M23.5625 100.292C22.4045 100.292 21.2465 99.8285 20.3201 98.9021L11.0563 89.6382C9.20348 87.7854 9.20348 85.0062 11.0563 83.1535C12.909 81.3007 15.9198 81.3007 17.541 83.1535L23.5625 89.175L38.8479 73.8896C40.7007 72.0368 43.4799 72.0368 45.3326 73.8896C47.1854 75.7424 47.1854 78.5215 45.3326 80.3743L26.8049 98.9021C25.8785 99.8285 24.7205 100.292 23.5625 100.292Z" fill="#63E8C0"/>
<path id="Combined Shape" fill-rule="evenodd" clip-rule="evenodd" d="M19.3333 26.1667C19.3333 25.0621 20.2288 24.1667 21.3333 24.1667H104.333C105.438 24.1667 106.333 25.0621 106.333 26.1667V85C106.333 86.1046 105.438 87 104.333 87H62.7541C61.5105 68.1064 45.7916 53.1667 26.5833 53.1667C24.1005 53.1667 21.6759 53.4163 19.3333 53.8918V26.1667ZM92.5314 33.0583C94.2941 32.1091 96.4925 32.7686 97.4417 34.5314C98.3909 36.2941 97.7313 38.4925 95.9686 39.4417L64.5519 56.3583C63.479 56.9361 62.1876 56.9361 61.1147 56.3583L29.6981 39.4417C27.9353 38.4925 27.2758 36.2941 28.225 34.5314C29.1741 32.7686 31.3726 32.1091 33.1353 33.0583L62.8333 49.0495L92.5314 33.0583Z" fill="#63E8C0"/>
</g>
</svg>
