<svg width="137" height="137" viewBox="0 0 137 137" fill="none" xmlns="http://www.w3.org/2000/svg">
<g id="Stockholm-icons / Communication / Clipboard-check">
<path id="Combined Shape" opacity="0.3" fill-rule="evenodd" clip-rule="evenodd" d="M45.6668 17.125H24.8335C23.7289 17.125 22.8335 18.0204 22.8335 19.125V129.292C22.8335 130.396 23.7289 131.292 24.8335 131.292H112.167C113.271 131.292 114.167 130.396 114.167 129.292V19.125C114.167 18.0204 113.271 17.125 112.167 17.125H91.3335V19.9792C91.3335 24.7081 87.4999 28.5417 82.771 28.5417H54.2293C49.5003 28.5417 45.6668 24.7081 45.6668 19.9792V17.125Z" fill="#63E8C0"/>
<path id="check-path" fill-rule="evenodd" clip-rule="evenodd" d="M62.078 89.9062C60.7103 89.9062 59.3427 89.3592 58.2486 88.2651L47.3076 77.3241C45.1195 75.1359 45.1195 71.8536 47.3076 69.6654C49.4958 67.4773 53.0517 67.4773 54.9663 69.6654L62.078 76.7771L80.1306 58.7245C82.3188 56.5363 85.6011 56.5363 87.7892 58.7245C89.9774 60.9127 89.9774 64.195 87.7892 66.3832L65.9073 88.2651C64.8132 89.3592 63.4456 89.9062 62.078 89.9062Z" fill="#63E8C0"/>
<path id="Combined Shape_2" fill-rule="evenodd" clip-rule="evenodd" d="M62.7917 11.4167H51.875C51.5989 11.4167 51.375 11.6405 51.375 11.9167V22.3333C51.375 22.6095 51.5989 22.8333 51.875 22.8333H85.125C85.4011 22.8333 85.625 22.6095 85.625 22.3333V11.9167C85.625 11.6405 85.4011 11.4167 85.125 11.4167H74.2084C74.2084 8.26404 71.6527 5.70833 68.5 5.70833C65.3474 5.70833 62.7917 8.26404 62.7917 11.4167Z" fill="#63E8C0"/>
</g>
</svg>
